# xmcd
#
# Track frame offsets: 
#        150
#        14395
#        35547
#        49351
#        63908
#        69911
#        84498
#        98551
#
# Disc length: 1497 seconds
#
# Revision: 1
# Processed by: cddbd v1.5.2PL0 Copyright (c) Steve Scherf et al.
# Submitted via: ExactAudioCopyFreeDBPlugin 1.0
#
DISCID=5e05d708
DTITLE=Golden Smog - Blood On The Slacks
DYEAR=2007
DGENRE=Pop Rock
TTITLE0=Can't Even Tie Your Own Shoes
TTITLE1=Starman
TTITLE2=Look At You Now
TTITLE3=Scotch On Ice
TTITLE4=Magician
TTITLE5=Without A Struggle
TTITLE6=Tarpit
TTITLE7=Insecure
EXTD=
EXTT0=
EXTT1=
EXTT2=
EXTT3=
EXTT4=
EXTT5=
EXTT6=
EXTT7=
PLAYORDER=
